<svg width="1440" height="972" viewBox="0 0 1440 972" fill="none" xmlns="http://www.w3.org/2000/svg">
<path d="M-397 1C-380.5 253 -279.5 261.5 -162.5 320C-45.5 378.5 78 457.5 65 700C54.6 894 -91 1047.5 -162.5 1100" stroke="white" stroke-opacity="0.1" stroke-width="3"/>
<path d="M-300 1C-283.5 253 -182.5 261.5 -65.5 320C51.5 378.5 175 457.5 162 700C151.6 894 6 1047.5 -65.5 1100" stroke="white" stroke-opacity="0.1" stroke-width="3"/>
<path d="M-263 1C-246.5 253 -145.5 261.5 -28.5 320C88.5 378.5 212 457.5 199 700C188.6 894 43 1047.5 -28.5 1100" stroke="white" stroke-opacity="0.1" stroke-width="3"/>
<path d="M-100 1C-83.5 253 17.5 261.5 134.5 320C251.5 378.5 375 457.5 362 700C351.6 894 206 1047.5 134.5 1100" stroke="white" stroke-opacity="0.1" stroke-width="3"/>
<path d="M19 1C35.5 253 136.5 261.5 253.5 320C370.5 378.5 494 457.5 481 700C470.6 894 325 1047.5 253.5 1100" stroke="white" stroke-opacity="0.1" stroke-width="3"/>
<path d="M151 1C167.5 253 268.5 261.5 385.5 320C502.5 378.5 626 457.5 613 700C602.6 894 457 1047.5 385.5 1100" stroke="white" stroke-opacity="0.1" stroke-width="3"/>
<path d="M195 1C211.5 253 312.5 261.5 429.5 320C546.5 378.5 670 457.5 657 700C646.6 894 501 1047.5 429.5 1100" stroke="white" stroke-opacity="0.1" stroke-width="3"/>
<path d="M304 1C320.5 253 421.5 261.5 538.5 320C655.5 378.5 779 457.5 766 700C755.6 894 610 1047.5 538.5 1100" stroke="white" stroke-opacity="0.1" stroke-width="3"/>
<path d="M405 1C421.5 253 522.5 261.5 639.5 320C756.5 378.5 880 457.5 867 700C856.6 894 711 1047.5 639.5 1100" stroke="white" stroke-opacity="0.1" stroke-width="3"/>
<path d="M522 1C538.5 253 639.5 261.5 756.5 320C873.5 378.5 997 457.5 984 700C973.6 894 828 1047.5 756.5 1100" stroke="white" stroke-opacity="0.1" stroke-width="3"/>
<path d="M571 1C587.5 253 688.5 261.5 805.5 320C922.5 378.5 1046 457.5 1033 700C1022.6 894 877 1047.5 805.5 1100" stroke="white" stroke-opacity="0.1" stroke-width="3"/>
<path d="M687 1C703.5 253 804.5 261.5 921.5 320C1038.5 378.5 1162 457.5 1149 700C1138.6 894 993 1047.5 921.5 1100" stroke="white" stroke-opacity="0.1" stroke-width="3"/>
<path d="M868 1C884.5 253 985.5 261.5 1102.5 320C1219.5 378.5 1343 457.5 1330 700C1319.6 894 1174 1047.5 1102.5 1100" stroke="white" stroke-opacity="0.1" stroke-width="3"/>
<path d="M958 1C974.5 253 1075.5 261.5 1192.5 320C1309.5 378.5 1433 457.5 1420 700C1409.6 894 1264 1047.5 1192.5 1100" stroke="white" stroke-opacity="0.1" stroke-width="3"/>
<path d="M1113 1C1129.5 253 1230.5 261.5 1347.5 320C1464.5 378.5 1588 457.5 1575 700C1564.6 894 1419 1047.5 1347.5 1100" stroke="white" stroke-opacity="0.1" stroke-width="3"/>
<path d="M1351 1C1367.5 253 1468.5 261.5 1585.5 320C1702.5 378.5 1826 457.5 1813 700C1802.6 894 1657 1047.5 1585.5 1100" stroke="white" stroke-opacity="0.1" stroke-width="3"/>
</svg>
