<svg width="1440" height="1628" viewBox="0 0 1440 1628" fill="none" xmlns="http://www.w3.org/2000/svg">
<path d="M-75 390.76C3 512.037 59.5 448.176 114.5 390.76C169.5 333.344 175 413.61 245.5 468.682C316 523.755 304 452.278 335.5 390.76C367 329.243 492.5 427.085 543 468.682C593.5 510.28 676 500.905 689.5 418.297C703 335.688 727 397.791 783.5 468.682C840 539.573 885 546.604 912.5 468.682C940 390.76 1018.5 358.537 1053.5 468.682C1088.5 578.827 1159.5 617.495 1186.5 486.844C1213.5 356.193 1302 317.525 1341 445.833C1372.2 548.479 1438.67 528.442 1468 505.593" stroke="white" stroke-opacity="0.1" stroke-width="3"/>
<path d="M-75 469.044C3 590.32 59.5 526.46 114.5 469.044C169.5 411.627 175 491.893 245.5 546.965C316 602.038 304 530.561 335.5 469.044C367 407.526 492.5 505.368 543 546.965C593.5 588.563 676 579.189 689.5 496.58C703 413.971 727 476.074 783.5 546.965C840 617.857 885 624.887 912.5 546.965C940 469.044 1018.5 436.82 1053.5 546.965C1088.5 657.111 1159.5 695.779 1186.5 565.128C1213.5 434.477 1302 395.809 1341 524.116C1372.2 626.762 1438.67 606.725 1468 583.876" stroke="white" stroke-opacity="0.1" stroke-width="3"/>
<path d="M-75 644.807C3 766.084 59.5 702.223 114.5 644.807C169.5 587.391 175 667.656 245.5 722.729C316 777.802 304 706.324 335.5 644.807C367 583.29 492.5 681.132 543 722.729C593.5 764.326 676 754.952 689.5 672.343C703 589.735 727 651.838 783.5 722.729C840 793.62 885 800.651 912.5 722.729C940 644.807 1018.5 612.584 1053.5 722.729C1088.5 832.874 1159.5 871.542 1186.5 740.891C1213.5 610.24 1302 571.572 1341 699.88C1372.2 802.526 1438.67 782.489 1468 759.639" stroke="white" stroke-opacity="0.1" stroke-width="3"/>
<path d="M-75 690.505C3 811.782 59.5 747.922 114.5 690.505C169.5 633.089 175 713.355 245.5 768.427C316 823.5 304 752.023 335.5 690.505C367 628.988 492.5 726.83 543 768.427C593.5 810.025 676 800.651 689.5 718.042C703 635.433 727 697.536 783.5 768.427C840 839.319 885 846.349 912.5 768.427C940 690.505 1018.5 658.282 1053.5 768.427C1088.5 878.572 1159.5 917.24 1186.5 786.59C1213.5 655.939 1302 617.271 1341 745.578C1372.2 848.224 1438.67 828.187 1468 805.338" stroke="white" stroke-opacity="0.1" stroke-width="3"/>
<path d="M-75 722.143C3 843.42 59.5 779.559 114.5 722.143C169.5 664.727 175 744.992 245.5 800.065C316 855.138 304 783.66 335.5 722.143C367 660.626 492.5 758.468 543 800.065C593.5 841.662 676 832.288 689.5 749.679C703 667.071 727 729.174 783.5 800.065C840 870.956 885 877.987 912.5 800.065C940 722.143 1018.5 689.92 1053.5 800.065C1088.5 910.21 1159.5 948.878 1186.5 818.227C1213.5 687.576 1302 648.908 1341 777.216C1372.2 879.862 1438.67 859.825 1468 836.975" stroke="white" stroke-opacity="0.1" stroke-width="3"/>
<path d="M-75 839.319C3 960.596 59.5 896.735 114.5 839.319C169.5 781.903 175 862.168 245.5 917.241C316 972.313 304 900.836 335.5 839.319C367 777.801 492.5 875.643 543 917.241C593.5 958.838 676 949.464 689.5 866.855C703 784.246 727 846.349 783.5 917.241C840 988.132 885 995.162 912.5 917.241C940 839.319 1018.5 807.095 1053.5 917.241C1088.5 1027.39 1159.5 1066.05 1186.5 935.403C1213.5 804.752 1302 766.084 1341 894.391C1372.2 997.037 1438.67 977 1468 954.151" stroke="white" stroke-opacity="0.1" stroke-width="3"/>
<path d="M-75 940.09C3 1061.37 59.5 997.506 114.5 940.09C169.5 882.674 175 962.939 245.5 1018.01C316 1073.08 304 1001.61 335.5 940.09C367 878.573 492.5 976.414 543 1018.01C593.5 1059.61 676 1050.24 689.5 967.626C703 885.017 727 947.12 783.5 1018.01C840 1088.9 885 1095.93 912.5 1018.01C940 940.09 1018.5 907.867 1053.5 1018.01C1088.5 1128.16 1159.5 1166.82 1186.5 1036.17C1213.5 905.523 1302 866.855 1341 995.162C1372.2 1097.81 1438.67 1077.77 1468 1054.92" stroke="white" stroke-opacity="0.1" stroke-width="3"/>
<path d="M-75 1139.29C3 1260.57 59.5 1196.7 114.5 1139.29C169.5 1081.87 175 1162.14 245.5 1217.21C316 1272.28 304 1200.81 335.5 1139.29C367 1077.77 492.5 1175.61 543 1217.21C593.5 1258.81 676 1249.43 689.5 1166.82C703 1084.22 727 1146.32 783.5 1217.21C840 1288.1 885 1295.13 912.5 1217.21C940 1139.29 1018.5 1107.07 1053.5 1217.21C1088.5 1327.36 1159.5 1366.02 1186.5 1235.37C1213.5 1104.72 1302 1066.05 1341 1194.36C1372.2 1297.01 1438.67 1276.97 1468 1254.12" stroke="white" stroke-opacity="0.1" stroke-width="3"/>
<path d="M-75 1215.45C3 1336.73 59.5 1272.87 114.5 1215.45C169.5 1158.04 175 1238.3 245.5 1293.37C316 1348.45 304 1276.97 335.5 1215.45C367 1153.94 492.5 1251.78 543 1293.37C593.5 1334.97 676 1325.6 689.5 1242.99C703 1160.38 727 1222.48 783.5 1293.37C840 1364.27 885 1371.3 912.5 1293.37C940 1215.45 1018.5 1183.23 1053.5 1293.37C1088.5 1403.52 1159.5 1442.19 1186.5 1311.54C1213.5 1180.89 1302 1142.22 1341 1270.53C1372.2 1373.17 1438.67 1353.13 1468 1330.28" stroke="white" stroke-opacity="0.1" stroke-width="3"/>
<path d="M-75 1357.24C3 1478.51 59.5 1414.65 114.5 1357.24C169.5 1299.82 175 1380.08 245.5 1435.16C316 1490.23 304 1418.75 335.5 1357.24C367 1295.72 492.5 1393.56 543 1435.16C593.5 1476.75 676 1467.38 689.5 1384.77C703 1302.16 727 1364.27 783.5 1435.16C840 1506.05 885 1513.08 912.5 1435.16C940 1357.24 1018.5 1325.01 1053.5 1435.16C1088.5 1545.3 1159.5 1583.97 1186.5 1453.32C1213.5 1322.67 1302 1284 1341 1412.31C1372.2 1514.95 1438.67 1494.92 1468 1472.07" stroke="white" stroke-opacity="0.1" stroke-width="3"/>
<path d="M-75 1447.46C3 1568.74 59.5 1504.88 114.5 1447.46C169.5 1390.04 175 1470.31 245.5 1525.38C316 1580.46 304 1508.98 335.5 1447.46C367 1385.94 492.5 1483.79 543 1525.38C593.5 1566.98 676 1557.61 689.5 1475C703 1392.39 727 1454.49 783.5 1525.38C840 1596.27 885 1603.3 912.5 1525.38C940 1447.46 1018.5 1415.24 1053.5 1525.38C1088.5 1635.53 1159.5 1674.2 1186.5 1543.54C1213.5 1412.89 1302 1374.23 1341 1502.53C1372.2 1605.18 1438.67 1585.14 1468 1562.29" stroke="white" stroke-opacity="0.1" stroke-width="3"/>
<path d="M-59 301.482C19 422.759 75.5 358.898 130.5 301.482C185.5 244.066 191 324.331 261.5 379.404C332 434.476 320 362.999 351.5 301.482C383 239.965 508.5 337.806 559 379.404C609.5 421.001 692 411.627 705.5 329.018C719 246.409 743 308.513 799.5 379.404C856 450.295 901 457.326 928.5 379.404C956 301.482 1034.5 269.259 1069.5 379.404C1104.5 489.549 1175.5 528.217 1202.5 397.566C1229.5 266.915 1318 228.247 1357 356.555C1388.2 459.2 1454.67 439.163 1484 416.314" stroke="white" stroke-opacity="0.1" stroke-width="3"/>
<path d="M-59 247.581C19 368.858 75.5 304.997 130.5 247.581C185.5 190.165 191 270.431 261.5 325.503C332 380.576 320 309.099 351.5 247.581C383 186.064 508.5 283.906 559 325.503C609.5 367.101 692 357.727 705.5 275.118C719 192.509 743 254.612 799.5 325.503C856 396.395 901 403.425 928.5 325.503C956 247.581 1034.5 215.358 1069.5 325.503C1104.5 435.648 1175.5 474.316 1202.5 343.665C1229.5 213.015 1318 174.347 1357 302.654C1388.2 405.3 1454.67 385.263 1484 362.414" stroke="white" stroke-opacity="0.1" stroke-width="3"/>
<path d="M-59 112.829C19 234.106 75.5 170.245 130.5 112.829C185.5 55.4131 191 135.678 261.5 190.751C332 245.824 320 174.346 351.5 112.829C383 51.3119 508.5 149.154 559 190.751C609.5 232.348 692 222.974 705.5 140.365C719 57.7566 743 119.86 799.5 190.751C856 261.642 901 268.673 928.5 190.751C956 112.829 1034.5 80.6058 1069.5 190.751C1104.5 300.896 1175.5 339.564 1202.5 208.913C1229.5 78.2623 1318 39.5943 1357 167.902C1388.2 270.548 1454.67 250.511 1484 227.661" stroke="white" stroke-opacity="0.1" stroke-width="3"/>
<path d="M-59 26.1192C19 147.396 75.5 83.5353 130.5 26.1192C185.5 -31.2969 191 48.9685 261.5 104.041C332 159.114 320 87.6364 351.5 26.1192C383 -35.3981 508.5 62.4437 559 104.041C609.5 145.638 692 136.264 705.5 53.6555C719 -28.9534 743 33.1497 799.5 104.041C856 174.932 901 181.963 928.5 104.041C956 26.1192 1034.5 -6.10412 1069.5 104.041C1104.5 214.186 1175.5 252.854 1202.5 122.203C1229.5 -8.44764 1318 -47.1156 1357 81.1918C1388.2 183.838 1454.67 163.801 1484 140.951" stroke="white" stroke-opacity="0.1" stroke-width="3"/>
</svg>
