<svg width="1440" height="1101" viewBox="0 0 1440 1101" fill="none" xmlns="http://www.w3.org/2000/svg">
<path d="M487.5 387C507.5 346 602.5 357.5 710 361.5C760.333 356.333 874.7 346 929.5 346C998 346 974 387 974 408.5C974 430 906 473 890 473C874 473 624 471 555.5 473C487 475 467.5 428 487.5 387Z" stroke="white" stroke-opacity="0.1" stroke-width="3"/>
<path d="M456.404 377.405C478.973 319 586.178 335.382 707.488 341.08C764.287 333.72 893.346 319 955.186 319C1032.49 319 1005.4 377.405 1005.4 408.032C1005.4 438.658 928.667 499.912 910.611 499.912C892.556 499.912 610.44 497.063 533.14 499.912C455.84 502.761 433.835 435.809 456.404 377.405Z" stroke="white" stroke-opacity="0.1" stroke-width="3"/>
<path d="M437.002 367.475C461.178 291 576.012 312.45 705.957 319.911C766.799 310.274 905.043 291 971.284 291C1054.09 291 1025.08 367.475 1025.08 407.577C1025.08 447.68 942.878 527.885 923.537 527.885C904.197 527.885 602.001 524.154 519.2 527.885C436.398 531.615 412.827 443.949 437.002 367.475Z" stroke="white" stroke-opacity="0.1" stroke-width="3"/>
<path d="M369.096 347.26C398.894 234 540.434 265.768 700.598 276.818C775.589 262.545 945.983 234 1027.63 234C1129.69 234 1093.93 347.26 1093.93 406.652C1093.93 466.045 992.617 584.83 968.779 584.83C944.94 584.83 572.467 579.305 470.409 584.83C368.351 590.354 339.298 460.52 369.096 347.26Z" stroke="white" stroke-opacity="0.1" stroke-width="3"/>
<path d="M274.027 332.01C311.696 191 490.624 230.552 693.095 244.309C787.896 226.539 1003.3 191 1106.51 191C1235.53 191 1190.33 332.01 1190.33 405.955C1190.33 479.899 1062.25 627.788 1032.12 627.788C1001.98 627.788 531.118 620.909 402.102 627.788C273.085 634.666 236.358 473.02 274.027 332.01Z" stroke="white" stroke-opacity="0.1" stroke-width="3"/>
<path d="M197.39 302.22C241.404 107 450.471 161.757 687.047 180.803C797.816 156.202 1049.5 107 1170.1 107C1320.85 107 1268.03 302.22 1268.03 404.592C1268.03 506.963 1118.39 711.706 1083.17 711.706C1047.96 711.706 497.786 702.183 347.038 711.706C196.289 721.229 153.375 497.44 197.39 302.22Z" stroke="white" stroke-opacity="0.1" stroke-width="3"/>
<path d="M119.782 274.558C170.222 29 409.81 97.876 680.923 121.833C807.862 90.8886 1096.29 29 1234.5 29C1407.25 29 1346.72 274.558 1346.72 403.326C1346.72 532.094 1175.23 789.63 1134.88 789.63C1094.53 789.63 464.032 777.652 291.277 789.63C118.521 801.609 69.3427 520.116 119.782 274.558Z" stroke="white" stroke-opacity="0.1" stroke-width="3"/>
<path d="M50.9057 264.273C107.048 0 373.723 74.1254 675.487 99.9081C816.778 66.6054 1137.82 0 1291.65 0C1483.93 0 1416.56 264.273 1416.56 402.855C1416.56 541.438 1225.68 818.602 1180.77 818.602C1135.85 818.602 434.076 805.711 241.789 818.602C49.5022 831.494 -5.23641 528.546 50.9057 264.273Z" stroke="white" stroke-opacity="0.1" stroke-width="3"/>
<path d="M-40.2829 243.349C23.4091 -59 325.946 25.8053 668.291 55.3027C828.582 17.2018 1192.79 -59 1367.31 -59C1585.46 -59 1509.03 243.349 1509.03 401.898C1509.03 560.447 1292.47 877.545 1241.52 877.545C1190.57 877.545 394.415 862.796 176.27 877.545C-41.8752 892.294 -103.975 545.698 -40.2829 243.349Z" stroke="white" stroke-opacity="0.1" stroke-width="3"/>
<path d="M-98.4884 214.978C-29.9773 -139 295.45 -39.7136 663.697 -5.17918C836.117 -49.7861 1227.89 -139 1415.61 -139C1650.26 -139 1568.04 214.978 1568.04 400.6C1568.04 586.222 1335.11 957.467 1280.3 957.467C1225.49 957.467 369.1 940.2 134.449 957.467C-100.201 974.734 -167 568.955 -98.4884 214.978Z" stroke="white" stroke-opacity="0.1" stroke-width="3"/>
<path d="M-144.083 176.676C-71.7967 -247 271.562 -128.164 660.099 -86.8298C842.019 -140.22 1255.37 -247 1453.44 -247C1701.02 -247 1614.27 176.676 1614.27 398.848C1614.27 621.019 1368.5 1065.36 1310.67 1065.36C1252.84 1065.36 349.269 1044.7 101.69 1065.36C-145.89 1086.03 -216.369 600.352 -144.083 176.676Z" stroke="white" stroke-opacity="0.1" stroke-width="3"/>
<path d="M-266.314 164.973C-183.908 -280 207.521 -155.191 650.453 -111.779C857.842 -167.852 1329.07 -280 1554.86 -280C1837.1 -280 1738.21 164.973 1738.21 398.312C1738.21 631.652 1458.03 1098.33 1392.11 1098.33C1326.18 1098.33 296.107 1076.62 13.8663 1098.33C-268.375 1120.04 -348.72 609.946 -266.314 164.973Z" stroke="white" stroke-opacity="0.1" stroke-width="3"/>
</svg>
